<svg width="421" height="421" viewBox="0 0 421 421" fill="none" xmlns="http://www.w3.org/2000/svg">
<g clip-path="url(#clip0)">
<path d="M406.8 96.4C398.4 87.6 386.8 82.4 373.6 82.4H307.2V81.6C307.2 71.6 303.2 62 296.4 55.6C289.6 48.8 280.4 44.8 270.4 44.8H150.4C140 44.8 130.8 48.8 124 55.6C117.2 62.4 113.2 71.6 113.2 81.6V82.4H47.2C34 82.4 22.4 87.6 14 96.4C5.6 104.8 0 116.8 0 129.6V328.8C0 342 5.2 353.6 14 362C22.4 370.4 34.4 376 47.2 376H373.6C386.8 376 398.4 370.8 406.8 362C415.2 353.6 420.8 341.6 420.8 328.8V129.6C420.8 116.4 415.6 104.8 406.8 96.4ZM400 328.8H399.6C399.6 336 396.8 342.4 392 347.2C387.2 352 380.8 354.8 373.6 354.8H47.2C40 354.8 33.6 352 28.8 347.2C24 342.4 21.2 336 21.2 328.8V129.6C21.2 122.4 24 116 28.8 111.2C33.6 106.4 40 103.6 47.2 103.6H124.4C130.4 103.6 135.2 98.8 135.2 92.8V81.2C135.2 76.8 136.8 72.8 139.6 70C142.4 67.2 146.4 65.6 150.8 65.6H270.4C274.8 65.6 278.8 67.2 281.6 70C284.4 72.8 286 76.8 286 81.2V92.8C286 98.8 290.8 103.6 296.8 103.6H374C381.2 103.6 387.6 106.4 392.4 111.2C397.2 116 400 122.4 400 129.6V328.8Z" fill="white"/>
<path d="M210.4 130.8C183.2 130.8 158.4 142 140.8 159.6C122.8 177.6 112 202 112 229.2C112 256.4 123.2 281.2 140.8 298.8C158.8 316.8 183.2 327.6 210.4 327.6C237.6 327.6 262.4 316.4 280 298.8C298 280.8 308.8 256.4 308.8 229.2C308.8 202 297.6 177.2 280 159.6C262.4 142 237.6 130.8 210.4 130.8ZM264.8 284C250.8 297.6 231.6 306.4 210.4 306.4C189.2 306.4 170 297.6 156 284C142 270 133.6 250.8 133.6 229.6C133.6 208.4 142.4 189.2 156 175.2C170 161.2 189.2 152.8 210.4 152.8C231.6 152.8 250.8 161.6 264.8 175.2C278.8 189.2 287.2 208.4 287.2 229.6C287.6 250.8 278.8 270 264.8 284Z" fill="white"/>
<path d="M352.8 169.6C363.625 169.6 372.4 160.825 372.4 150C372.4 139.175 363.625 130.4 352.8 130.4C341.975 130.4 333.2 139.175 333.2 150C333.2 160.825 341.975 169.6 352.8 169.6Z" fill="white"/>
</g>
<defs>
<clipPath id="clip0">
<rect width="420.8" height="420.8" fill="white"/>
</clipPath>
</defs>
</svg>
