<svg width="512" height="512" viewBox="0 0 512 512" fill="none" xmlns="http://www.w3.org/2000/svg">
<path d="M256 320C291.346 320 320 291.346 320 256C320 220.654 291.346 192 256 192C220.654 192 192 220.654 192 256C192 291.346 220.654 320 256 320Z" fill="white"/>
<path d="M256 512C291.346 512 320 483.346 320 448C320 412.654 291.346 384 256 384C220.654 384 192 412.654 192 448C192 483.346 220.654 512 256 512Z" fill="white"/>
<path d="M256 128C291.346 128 320 99.3462 320 64C320 28.6538 291.346 0 256 0C220.654 0 192 28.6538 192 64C192 99.3462 220.654 128 256 128Z" fill="white"/>
</svg>
